# xmcd
#
# Track frame offsets: 
#        150
#        10685
#        26942
#        39420
#        61177
#        72400
#        82830
#        94330
#        108125
#        119175
#
# Disc length: 1770 seconds
#
# Revision: 6
# Processed by: cddbd v1.5.2PL0 Copyright (c) Steve Scherf et al.
# Submitted via: ExactAudioCopyFreeDBPlugin 1.0
#
DISCID=7e06e80a
DTITLE=Aretha Franklin - Aretha Now
DYEAR=1968
DGENRE=Soul
TTITLE0=Think
TTITLE1=I Say a Little Prayer
TTITLE2=See Saw
TTITLE3=Night Time is the Right Time
TTITLE4=You Send Me
TTITLE5=You're a Sweet Sweet Man
TTITLE6=I Take What I Want
TTITLE7=Hello Sunshine
TTITLE8=A Change
TTITLE9=I Can't See Myself Leaving You
EXTD=
EXTT0=
EXTT1=
EXTT2=
EXTT3=
EXTT4=
EXTT5=
EXTT6=
EXTT7=
EXTT8=
EXTT9=
PLAYORDER=
